<svg width="162" height="128" viewBox="0 0 162 128" fill="none" xmlns="http://www.w3.org/2000/svg">
<path d="M101.177 65.0392H28.0975C25.6562 65.0392 23.5037 63.4143 22.8212 61.0818L10.4313 17.8642C9.82751 15.7151 11.4288 13.566 13.6863 13.566H107.372" fill="white"/>
<path d="M48.4412 98.8742C48.4412 106.527 42.2199 112.738 34.555 112.738C26.89 112.738 20.6687 106.527 20.6687 98.8742C20.6687 91.2214 26.89 85.01 34.555 85.01C42.2199 85.01 48.4412 91.2214 48.4412 98.8742Z" fill="white"/>
<path d="M98.9199 98.8742C98.9199 106.527 92.6986 112.738 85.0336 112.738C77.3686 112.738 71.1474 106.527 71.1474 98.8742C71.1474 91.2214 77.3686 85.01 85.0336 85.01C92.6986 85.01 98.9199 91.2214 98.9199 98.8742Z" fill="white"/>
<path d="M87.0286 98.8742C87.0286 99.975 86.1361 100.866 85.0336 100.866C83.9311 100.866 83.0124 99.975 83.0124 98.8742C83.0124 97.7735 83.9311 96.8562 85.0336 96.8562C86.1361 96.8562 87.0286 97.7735 87.0286 98.8742Z" fill="white"/>
<path d="M54.9774 101.836C54.9774 109.489 48.7562 115.7 41.0649 115.7C33.4 115.7 27.1787 109.489 27.1787 101.836C27.1787 94.1567 33.4 87.9453 41.0649 87.9453C48.7562 87.9453 54.9774 94.1567 54.9774 101.836Z" stroke="#E7430F" stroke-width="7" stroke-linecap="round"/>
<path d="M38.6762 87.9453H93.0661C99.0511 87.9453 104.354 84.1713 106.27 78.5627L128.714 13.4088C130.63 7.80021 135.932 4 141.891 4H158.219" stroke="#E7430F" stroke-width="7" stroke-linecap="round"/>
<path d="M43.0862 101.836C43.0862 102.937 42.1937 103.828 41.0649 103.828C39.9624 103.828 39.0699 102.937 39.0699 101.836C39.0699 100.709 39.9624 99.8177 41.0649 99.8177C42.1937 99.8177 43.0862 100.709 43.0862 101.836Z" stroke="#E7430F" stroke-width="7" stroke-linecap="round"/>
<path d="M105.456 101.836C105.456 109.489 99.2349 115.7 91.5699 115.7C83.8787 115.7 77.6574 109.489 77.6574 101.836C77.6574 94.1567 83.8787 87.9453 91.5699 87.9453C99.2349 87.9453 105.456 94.1567 105.456 101.836Z" stroke="#E7430F" stroke-width="7" stroke-linecap="round"/>
<path d="M93.5649 101.836C93.5649 102.937 92.6724 103.828 91.5699 103.828C90.4411 103.828 89.5486 102.937 89.5486 101.836C89.5486 100.709 90.4411 99.8177 91.5699 99.8177C92.6724 99.8177 93.5649 100.709 93.5649 101.836Z" stroke="#E7430F" stroke-width="7" stroke-linecap="round"/>
<path d="M109.079 70.4382H35.9987C33.5575 70.4382 31.405 68.8132 30.7225 66.4545L18.3325 23.2631C17.7287 21.114 19.3562 18.965 21.5875 18.965H115.274" stroke="#E7430F" stroke-width="7" stroke-linecap="round"/>
<path d="M35.3425 31.4401H122.492" stroke="#E7430F" stroke-width="7" stroke-linecap="round"/>
<path d="M42.7974 49.9432H116.14" stroke="#E7430F" stroke-width="7" stroke-linecap="round"/>
<path d="M4 124.349C4 124.349 57.3924 106.291 129.475 124.349" stroke="#E7430F" stroke-width="7" stroke-linecap="round"/>
</svg>
